<svg xmlns="http://www.w3.org/2000/svg" viewBox="0 0 1600 900" role="img" aria-label="Fond IA agriculture">
  <defs>
    <linearGradient id="sky" x1="0" y1="0" x2="0" y2="1">
      <stop offset="0%" stop-color="#dff6ee"/>
      <stop offset="100%" stop-color="#f4fbf7"/>
    </linearGradient>
    <linearGradient id="fieldA" x1="0" y1="0" x2="1" y2="0">
      <stop offset="0%" stop-color="#b8e1cf"/>
      <stop offset="100%" stop-color="#8fd3b3"/>
    </linearGradient>
    <linearGradient id="fieldB" x1="0" y1="0" x2="1" y2="0">
      <stop offset="0%" stop-color="#9cd6b8"/>
      <stop offset="100%" stop-color="#6fc69f"/>
    </linearGradient>
    <linearGradient id="aiGlow" x1="0" y1="0" x2="1" y2="1">
      <stop offset="0%" stop-color="#3a86ff"/>
      <stop offset="100%" stop-color="#06d6a0"/>
    </linearGradient>
    <filter id="soft" x="-20%" y="-20%" width="140%" height="140%">
      <feGaussianBlur stdDeviation="6"/>
    </filter>
  </defs>

  <rect width="1600" height="900" fill="url(#sky)"/>

  <path d="M0 560 C 240 500, 520 600, 800 550 C 1080 500, 1300 620, 1600 560 L1600 900 L0 900 Z" fill="url(#fieldA)"/>
  <path d="M0 650 C 260 590, 500 700, 820 650 C 1100 610, 1360 740, 1600 680 L1600 900 L0 900 Z" fill="url(#fieldB)"/>

  <g stroke="#5eb08d" stroke-width="3" opacity="0.5">
    <path d="M80 730 L1580 730"/>
    <path d="M120 780 L1540 780"/>
    <path d="M160 830 L1500 830"/>
  </g>

  <g transform="translate(1140 180)">
    <circle cx="0" cy="0" r="120" fill="#ffffff" opacity="0.35" filter="url(#soft)"/>
    <circle cx="0" cy="0" r="88" fill="#ffffff" opacity="0.75"/>
    <circle cx="0" cy="0" r="70" fill="none" stroke="url(#aiGlow)" stroke-width="4"/>
    <g fill="#2f8f72">
      <circle cx="0" cy="-40" r="7"/>
      <circle cx="35" cy="-20" r="7"/>
      <circle cx="35" cy="20" r="7"/>
      <circle cx="0" cy="40" r="7"/>
      <circle cx="-35" cy="20" r="7"/>
      <circle cx="-35" cy="-20" r="7"/>
      <circle cx="0" cy="0" r="8"/>
    </g>
    <g stroke="#2f8f72" stroke-width="3" fill="none" opacity="0.9">
      <path d="M0 0 L0 -40"/>
      <path d="M0 0 L35 -20"/>
      <path d="M0 0 L35 20"/>
      <path d="M0 0 L0 40"/>
      <path d="M0 0 L-35 20"/>
      <path d="M0 0 L-35 -20"/>
    </g>
  </g>

  <g transform="translate(240 220)" opacity="0.75">
    <path d="M0 120 C 10 70, 20 30, 60 0 C 80 35, 78 75, 56 116 Z" fill="#56a37f"/>
    <path d="M62 120 C 72 70, 82 30, 122 0 C 142 35, 140 75, 118 116 Z" fill="#6db593"/>
    <rect x="56" y="118" width="10" height="80" fill="#4d8f72"/>
  </g>

  <g transform="translate(420 160)" opacity="0.55" stroke="#3a86ff" stroke-width="2" fill="none">
    <rect x="0" y="0" width="210" height="120" rx="14"/>
    <circle cx="42" cy="35" r="6" fill="#3a86ff"/>
    <circle cx="84" cy="35" r="6" fill="#3a86ff"/>
    <circle cx="126" cy="35" r="6" fill="#3a86ff"/>
    <path d="M42 35 H84 H126"/>
    <path d="M42 35 V78 H168"/>
    <path d="M84 35 V92 H168"/>
    <path d="M126 35 V64 H168"/>
  </g>
</svg>
